<svg id="分離模式" xmlns="http://www.w3.org/2000/svg" viewBox="0 0 50.39 50.39"><defs><style>.cls-1{fill:none;stroke:#acacac;stroke-miterlimit:10;}</style></defs><title>icon_02</title><path class="cls-1" d="M50.29,23.92s-2.68-1.89-3.68-2-1.2.5-1.2.5" transform="translate(-1.3 -1.09)"/><path class="cls-1" d="M34,38.16S31.77,40.85,30.08,41,26,41,26,41a18.9,18.9,0,0,1,0-3.48c.2-1.2-1.8-3.09-2.69-2.59s-4.38,5.18-4.78,5.67.79,1.1,1.49,1.8a3.73,3.73,0,0,1,.7,3.28c-.3,1.1-1,3-.2,3.89" transform="translate(-1.3 -1.09)"/><path class="cls-1" d="M6.18,38.86a30.58,30.58,0,0,0,4.28-4.06c1.3-1.72-.1-2.21,0-3.41S8.23,29.1,8.6,28.5s2.16-2.45,3.65-2.22,1.9,1.83,3.89,1.83,4.78-1.7,5-4.19-1.2-5.07-1.8-6.17,1.14-.5,1.82-1.1S25,16.06,25.2,12,22.81,8.49,22.71,6.4A4.05,4.05,0,0,1,24.3,2.51l1.09-.9" transform="translate(-1.3 -1.09)"/><path class="cls-1" d="M27.59,26.28c0,5.09,9.21,15.37,9.21,15.37S46,31.37,46,26.28a9.21,9.21,0,0,0-18.42,0Z" transform="translate(-1.3 -1.09)"/><circle class="cls-1" cx="35.75" cy="24.33" r="3.09"/><path class="cls-1" d="M26.49,1.59A24.67,24.67,0,0,0,15.32,4.26a7.57,7.57,0,0,1,1.85,5c0,4.21-7.61,12.7-7.61,12.7A60.69,60.69,0,0,1,4.43,15.2,24.69,24.69,0,1,0,26.49,1.59Z" transform="translate(-1.3 -1.09)"/><path class="cls-1" d="M15.32,4.26A7.6,7.6,0,0,0,2,9.22c0,1.61,1.11,3.83,2.48,6" transform="translate(-1.3 -1.09)"/><path class="cls-1" d="M4.43,15.2a60.69,60.69,0,0,0,5.13,6.72s7.61-8.49,7.61-12.7a7.57,7.57,0,0,0-1.85-5" transform="translate(-1.3 -1.09)"/><circle class="cls-1" cx="8.47" cy="7.42" r="2.55"/></svg>