<?xml version="1.0" encoding="utf-8"?>
<!-- Generator: Adobe Illustrator 22.1.0, SVG Export Plug-In . SVG Version: 6.00 Build 0)  -->
<svg version="1.1" id="分離模式" xmlns="http://www.w3.org/2000/svg" xmlns:xlink="http://www.w3.org/1999/xlink" x="0px"
	 y="0px" viewBox="0 0 53 52.6" style="enable-background:new 0 0 53 52.6;" xml:space="preserve">
<style type="text/css">
	.st0{fill:none;stroke:#ACACAC;stroke-miterlimit:10;}
	.st1{fill:none;stroke:#ACACAC;stroke-miterlimit:10;stroke-dasharray:6;}
	.st2{fill:none;stroke:#ACACAC;stroke-linecap:round;stroke-miterlimit:10;}
</style>
<g>
	<circle class="st0" cx="26.3" cy="26.3" r="19.4"/>
	<path class="st0" d="M16.2,11l0.6,0.8c0,0,0.2,2.2,0,3.2s-3.6,4.3-4.2,4.8c0,0.6,0,1.7,0,2.5c0,0.8-3.4,2.1-4.3,2.5
		c-0.8,0.4-1.4,0.4-1.4,0.4"/>
	<path class="st0" d="M7.6,31.5c0,0,1.7-0.3,2-0.7c0.3-0.4,1.5-0.9,2.3-0.8c0.8,0.1,1.3,0.9,1.2,1.4c-0.1,0.6,0.1,2,0.6,3
		c0.5,1.1,7.2,4.6,8.1,5.7s0.7,4.2,0.7,4.6"/>
	<path class="st0" d="M45.7,27.2c0,0-1.7,1.4-3,1.3c-1.3-0.1-2.7-2.7-3.2-2.7c-0.6,0.1-1.2,2.1-1.2,2.7c0,0.6-0.8,4.1-0.9,5.1
		c-0.1,1.1-1,5.3-2.6,5.5c-1.6,0.1-1.8,0-2.3,0c-0.5,0-1.3-0.8-1.3-2.2c0.1-1.4,0.5-3.1-0.6-3.9c-1.1-0.8-8-5.5-8.2-7.8
		s0.7-6.7,1.6-7.1c0.8-0.5,1.1-1.1,1.8,0c0.7,1.1,0.8,2.3,2.1,2.2s1.4-1.3,1.6-2.2c0.2-0.9,1.4-2.6,2.9-2.8c1.5-0.3,1.9-0.6,1.9-1.1
		s0-5.4,0-5.4"/>
	<g>
		<path class="st1" d="M26.2,0.5C12,0.5,0.5,12.1,0.5,26.3c0,14.2,11.5,25.8,25.8,25.8c5.1,0,9.8-1.5,13.9-4"/>
	</g>
	<polyline class="st2" points="43.5,39.1 48.1,41.9 50.1,46.7 	"/>
	<polyline class="st2" points="40.1,44.6 44.4,44.9 44.4,49.1 	"/>
	<line class="st2" x1="52.5" y1="38.8" x2="44.4" y2="44.9"/>
</g>
</svg>
