<svg id="分離模式" xmlns="http://www.w3.org/2000/svg" viewBox="0 0 48.7 41.07"><defs><style>.cls-1{fill:none;stroke:#acacac;stroke-miterlimit:10;}</style></defs><title>icon_03</title><polyline class="cls-1" points="0.5 26.9 0.5 0.5 43.2 0.5"/><polyline class="cls-1" points="45.31 0.5 48.2 0.5 48.2 35.07 0.5 35.07 0.5 28.99"/><line class="cls-1" x1="24.35" y1="0.5" x2="24.35" y2="35.07"/><rect class="cls-1" x="3.51" y="4.02" width="17.16" height="14.6"/><polyline class="cls-1" points="4.08 15.03 8.92 10.74 18.62 18.62"/><line class="cls-1" x1="20.22" y1="11.7" x2="16.06" y2="15.87"/><circle class="cls-1" cx="15.98" cy="8.19" r="2.16"/><line class="cls-1" x1="20.22" y1="21.37" x2="4.09" y2="21.37"/><line class="cls-1" x1="20.29" y1="24.59" x2="4.16" y2="24.59"/><line class="cls-1" x1="20.15" y1="27.8" x2="4.02" y2="27.8"/><line class="cls-1" x1="8.91" y1="31.01" x2="4.02" y2="31.01"/><line class="cls-1" x1="44.37" y1="5.31" x2="28.24" y2="5.31"/><line class="cls-1" x1="44.45" y1="8.52" x2="28.31" y2="8.52"/><line class="cls-1" x1="44.31" y1="11.74" x2="28.17" y2="11.74"/><line class="cls-1" x1="33.06" y1="14.95" x2="28.17" y2="14.95"/><path class="cls-1" d="M38.39,23.11c.68.12.92.72,1.64.92s1.4-.24,1.73-.24.48,1.2,1.06,1.63,1.49.57,1.73,1.15,0,.77,0,1.59.8,1.24.8,1.68-.9,1.24-.9,1.68.48,1.39-.09,1.92-1.11.43-1.49.86-.8,1.3-1,1.44-1.16-.29-1.88,0-1.15,1.11-1.46.94a6.32,6.32,0,0,0-2.24-.94,2,2,0,0,1-1.92-.86c-.39-.72-2.11-1.44-2.11-2.11A5.47,5.47,0,0,0,32,30.25a1.07,1.07,0,0,1,0-1.47,3.55,3.55,0,0,0,.57-2c0-.57.39-.86.87-1s1.2-.86,1.2-1.2a1.06,1.06,0,0,1,1-.91,2.66,2.66,0,0,0,1.63-.29A1.59,1.59,0,0,1,38.39,23.11Z" transform="translate(-2.15 -5.66)"/><line class="cls-1" x1="38.94" y1="21.63" x2="33.76" y2="26.9"/><line class="cls-1" x1="38.94" y1="26.33" x2="37.98" y2="26.33"/><line class="cls-1" x1="34.86" y1="22.01" x2="33.76" y2="22.01"/><line class="cls-1" x1="24.35" y1="35.36" x2="36.74" y2="38.34"/><polyline class="cls-1" points="45.81 35.74 45.81 40.4 38.95 38.34"/><path class="cls-1" d="M24.43,41c-.72.1-19.4,5-19.4,5V41" transform="translate(-2.15 -5.66)"/></svg>